No new commits.
From github.com:goran-mahovlic/ulx5m-live-bitsream
   3cf6ab9..001d8c8  main       -> origin/main
New commits found. Pulling changes...
From github.com:goran-mahovlic/ulx5m-live-bitsream
 * branch            main       -> FETCH_HEAD
Updating 3cf6ab9..001d8c8
Fast-forward
 bit/hdmi.bit | Bin 0 -> 96673 bytes
 1 file changed, 0 insertions(+), 0 deletions(-)
 create mode 100644 bit/hdmi.bit
Power OFF
sudo: a terminal is required to read the password; either use the -S option to read from standard input or configure an askpass helper
sudo: a password is required
Sleep 5
sudo: a terminal is required to read the password; either use the -S option to read from standard input or configure an askpass helper
sudo: a password is required
Flashing FPGA
empty
Jtag frequency : requested 6000000Hz -> real 6000000Hz
Load SRAM via JTAG: [==================================================] 100.00%
Done
Waiting FPGA boot and stream change
Running ffmpeg snapshot...
ffmpeg version 6.1.1-3ubuntu5 Copyright (c) 2000-2023 the FFmpeg developers
  built with gcc 13 (Ubuntu 13.2.0-23ubuntu3)
  configuration: --prefix=/usr --extra-version=3ubuntu5 --toolchain=hardened --libdir=/usr/lib/x86_64-linux-gnu --incdir=/usr/include/x86_64-linux-gnu --arch=amd64 --enable-gpl --disable-stripping --disable-omx --enable-gnutls --enable-libaom --enable-libass --enable-libbs2b --enable-libcaca --enable-libcdio --enable-libcodec2 --enable-libdav1d --enable-libflite --enable-libfontconfig --enable-libfreetype --enable-libfribidi --enable-libglslang --enable-libgme --enable-libgsm --enable-libharfbuzz --enable-libmp3lame --enable-libmysofa --enable-libopenjpeg --enable-libopenmpt --enable-libopus --enable-librubberband --enable-libshine --enable-libsnappy --enable-libsoxr --enable-libspeex --enable-libtheora --enable-libtwolame --enable-libvidstab --enable-libvorbis --enable-libvpx --enable-libwebp --enable-libx265 --enable-libxml2 --enable-libxvid --enable-libzimg --enable-openal --enable-opencl --enable-opengl --disable-sndio --enable-libvpl --disable-libmfx --enable-libdc1394 --enable-libdrm --enable-libiec61883 --enable-chromaprint --enable-frei0r --enable-ladspa --enable-libbluray --enable-libjack --enable-libpulse --enable-librabbitmq --enable-librist --enable-libsrt --enable-libssh --enable-libsvtav1 --enable-libx264 --enable-libzmq --enable-libzvbi --enable-lv2 --enable-sdl2 --enable-libplacebo --enable-librav1e --enable-pocketsphinx --enable-librsvg --enable-libjxl --enable-shared
  libavutil      58. 29.100 / 58. 29.100
  libavcodec     60. 31.102 / 60. 31.102
  libavformat    60. 16.100 / 60. 16.100
  libavdevice    60.  3.100 / 60.  3.100
  libavfilter     9. 12.100 /  9. 12.100
  libswscale      7.  5.100 /  7.  5.100
  libswresample   4. 12.100 /  4. 12.100
  libpostproc    57.  3.100 / 57.  3.100
mime type is not rfc8216 compliant
[hls @ 0x56f982e6b840] Skip ('#EXT-X-VERSION:6')
[hls @ 0x56f982e6b840] Opening 'http://localhost:8899/hls/0/stream.m3u8' for reading
[hls @ 0x56f982e6b840] Skip ('#EXT-X-VERSION:6')
[hls @ 0x56f982e6b840] Skip ('#EXT-X-INDEPENDENT-SEGMENTS')
[hls @ 0x56f982e6b840] Skip ('#EXT-X-PROGRAM-DATE-TIME:2025-08-09T00:30:16.015+0000')
[hls @ 0x56f982e6b840] Skip ('#EXT-X-PROGRAM-DATE-TIME:2025-08-09T00:30:17.015+0000')
[hls @ 0x56f982e6b840] Skip ('#EXT-X-PROGRAM-DATE-TIME:2025-08-09T00:30:18.015+0000')
[hls @ 0x56f982e6b840] Skip ('#EXT-X-PROGRAM-DATE-TIME:2025-08-09T00:30:19.015+0000')
[hls @ 0x56f982e6b840] Skip ('#EXT-X-PROGRAM-DATE-TIME:2025-08-09T00:30:20.015+0000')
[hls @ 0x56f982e6b840] Skip ('#EXT-X-PROGRAM-DATE-TIME:2025-08-09T00:30:21.015+0000')
[hls @ 0x56f982e6b840] Skip ('#EXT-X-PROGRAM-DATE-TIME:2025-08-09T00:30:22.015+0000')
[hls @ 0x56f982e6b840] Skip ('#EXT-X-PROGRAM-DATE-TIME:2025-08-09T00:30:23.015+0000')
[hls @ 0x56f982e6b840] Skip ('#EXT-X-PROGRAM-DATE-TIME:2025-08-09T00:30:24.015+0000')
[hls @ 0x56f982e6b840] Skip ('#EXT-X-PROGRAM-DATE-TIME:2025-08-09T00:30:25.015+0000')
[hls @ 0x56f982e6b840] Skip ('#EXT-X-PROGRAM-DATE-TIME:2025-08-09T00:30:26.015+0000')
[hls @ 0x56f982e6b840] Skip ('#EXT-X-PROGRAM-DATE-TIME:2025-08-09T00:30:27.015+0000')
[hls @ 0x56f982e6b840] Skip ('#EXT-X-PROGRAM-DATE-TIME:2025-08-09T00:30:28.015+0000')
[hls @ 0x56f982e6b840] Skip ('#EXT-X-PROGRAM-DATE-TIME:2025-08-09T00:30:29.015+0000')
[hls @ 0x56f982e6b840] Skip ('#EXT-X-PROGRAM-DATE-TIME:2025-08-09T00:30:30.015+0000')
[hls @ 0x56f982e6b840] Skip ('#EXT-X-PROGRAM-DATE-TIME:2025-08-09T00:30:31.015+0000')
[hls @ 0x56f982e6b840] Skip ('#EXT-X-PROGRAM-DATE-TIME:2025-08-09T00:30:32.015+0000')
[hls @ 0x56f982e6b840] Skip ('#EXT-X-PROGRAM-DATE-TIME:2025-08-09T00:30:33.015+0000')
[hls @ 0x56f982e6b840] Skip ('#EXT-X-PROGRAM-DATE-TIME:2025-08-09T00:30:34.015+0000')
[hls @ 0x56f982e6b840] Skip ('#EXT-X-PROGRAM-DATE-TIME:2025-08-09T00:30:35.015+0000')
[hls @ 0x56f982e6b840] Skip ('#EXT-X-PROGRAM-DATE-TIME:2025-08-09T00:30:36.015+0000')
[hls @ 0x56f982e6b840] Skip ('#EXT-X-PROGRAM-DATE-TIME:2025-08-09T00:30:37.015+0000')
[hls @ 0x56f982e6b840] Skip ('#EXT-X-PROGRAM-DATE-TIME:2025-08-09T00:30:38.015+0000')
[hls @ 0x56f982e6b840] Skip ('#EXT-X-PROGRAM-DATE-TIME:2025-08-09T00:30:39.015+0000')
[hls @ 0x56f982e6b840] Skip ('#EXT-X-PROGRAM-DATE-TIME:2025-08-09T00:30:40.015+0000')
[hls @ 0x56f982e6b840] Opening 'http://localhost:8899/hls/0/stream-ckLjyN_Ng-4317.ts' for reading
[hls @ 0x56f982e6b840] Opening 'http://localhost:8899/hls/0/stream-ckLjyN_Ng-4318.ts' for reading
Input #0, hls, from 'http://localhost:8899/hls/stream.m3u8':
  Duration: N/A, start: 4318.400000, bitrate: N/A
  Program 0 
    Metadata:
      variant_bitrate : 409024
  Stream #0:0: Video: h264 (Constrained Baseline) ([27][0][0][0] / 0x001B), yuv420p(tv, bt709), 640x480 [SAR 4:3 DAR 16:9], 24 fps, 24 tbr, 90k tbn
    Metadata:
      variant_bitrate : 409024
  Stream #0:1: Audio: aac (LC) ([15][0][0][0] / 0x000F), 48000 Hz, stereo, fltp
    Metadata:
      variant_bitrate : 409024
Stream mapping:
  Stream #0:0 -> #0:0 (h264 (native) -> mjpeg (native))
Press [q] to stop, [?] for help
[swscaler @ 0x56f982f43ec0] deprecated pixel format used, make sure you did set range correctly
    Last message repeated 3 times
[http @ 0x56f982e90b80] Opening 'http://localhost:8899/hls/0/stream-ckLjyN_Ng-4319.ts' for reading
[http @ 0x56f982e72d80] Opening 'http://localhost:8899/hls/0/stream.m3u8' for reading
[hls @ 0x56f982e6b840] Skip ('#EXT-X-VERSION:6')
[hls @ 0x56f982e6b840] Skip ('#EXT-X-INDEPENDENT-SEGMENTS')
[hls @ 0x56f982e6b840] Skip ('#EXT-X-PROGRAM-DATE-TIME:2025-08-09T00:30:17.015+0000')
[hls @ 0x56f982e6b840] Skip ('#EXT-X-PROGRAM-DATE-TIME:2025-08-09T00:30:18.015+0000')
[hls @ 0x56f982e6b840] Skip ('#EXT-X-PROGRAM-DATE-TIME:2025-08-09T00:30:19.015+0000')
[hls @ 0x56f982e6b840] Skip ('#EXT-X-PROGRAM-DATE-TIME:2025-08-09T00:30:20.015+0000')
[hls @ 0x56f982e6b840] Skip ('#EXT-X-PROGRAM-DATE-TIME:2025-08-09T00:30:21.015+0000')
[hls @ 0x56f982e6b840] Skip ('#EXT-X-PROGRAM-DATE-TIME:2025-08-09T00:30:22.015+0000')
[hls @ 0x56f982e6b840] Skip ('#EXT-X-PROGRAM-DATE-TIME:2025-08-09T00:30:23.015+0000')
[hls @ 0x56f982e6b840] Skip ('#EXT-X-PROGRAM-DATE-TIME:2025-08-09T00:30:24.015+0000')
[hls @ 0x56f982e6b840] Skip ('#EXT-X-PROGRAM-DATE-TIME:2025-08-09T00:30:25.015+0000')
[hls @ 0x56f982e6b840] Skip ('#EXT-X-PROGRAM-DATE-TIME:2025-08-09T00:30:26.015+0000')
[hls @ 0x56f982e6b840] Skip ('#EXT-X-PROGRAM-DATE-TIME:2025-08-09T00:30:27.015+0000')
[hls @ 0x56f982e6b840] Skip ('#EXT-X-PROGRAM-DATE-TIME:2025-08-09T00:30:28.015+0000')
[hls @ 0x56f982e6b840] Skip ('#EXT-X-PROGRAM-DATE-TIME:2025-08-09T00:30:29.015+0000')
[hls @ 0x56f982e6b840] Skip ('#EXT-X-PROGRAM-DATE-TIME:2025-08-09T00:30:30.015+0000')
[hls @ 0x56f982e6b840] Skip ('#EXT-X-PROGRAM-DATE-TIME:2025-08-09T00:30:31.015+0000')
[hls @ 0x56f982e6b840] Skip ('#EXT-X-PROGRAM-DATE-TIME:2025-08-09T00:30:32.015+0000')
[hls @ 0x56f982e6b840] Skip ('#EXT-X-PROGRAM-DATE-TIME:2025-08-09T00:30:33.015+0000')
[hls @ 0x56f982e6b840] Skip ('#EXT-X-PROGRAM-DATE-TIME:2025-08-09T00:30:34.015+0000')
[hls @ 0x56f982e6b840] Skip ('#EXT-X-PROGRAM-DATE-TIME:2025-08-09T00:30:35.015+0000')
[hls @ 0x56f982e6b840] Skip ('#EXT-X-PROGRAM-DATE-TIME:2025-08-09T00:30:36.015+0000')
[hls @ 0x56f982e6b840] Skip ('#EXT-X-PROGRAM-DATE-TIME:2025-08-09T00:30:37.015+0000')
[hls @ 0x56f982e6b840] Skip ('#EXT-X-PROGRAM-DATE-TIME:2025-08-09T00:30:38.015+0000')
[hls @ 0x56f982e6b840] Skip ('#EXT-X-PROGRAM-DATE-TIME:2025-08-09T00:30:39.015+0000')
[hls @ 0x56f982e6b840] Skip ('#EXT-X-PROGRAM-DATE-TIME:2025-08-09T00:30:40.015+0000')
[hls @ 0x56f982e6b840] Skip ('#EXT-X-PROGRAM-DATE-TIME:2025-08-09T00:30:41.015+0000')
[http @ 0x56f982e90b80] Opening 'http://localhost:8899/hls/0/stream-ckLjyN_Ng-4320.ts' for reading
[http @ 0x56f982e72d80] Opening 'http://localhost:8899/hls/0/stream.m3u8' for reading
[hls @ 0x56f982e6b840] Skip ('#EXT-X-VERSION:6')
[hls @ 0x56f982e6b840] Skip ('#EXT-X-INDEPENDENT-SEGMENTS')
[hls @ 0x56f982e6b840] Skip ('#EXT-X-PROGRAM-DATE-TIME:2025-08-09T00:30:18.015+0000')
[hls @ 0x56f982e6b840] Skip ('#EXT-X-PROGRAM-DATE-TIME:2025-08-09T00:30:19.015+0000')
[hls @ 0x56f982e6b840] Skip ('#EXT-X-PROGRAM-DATE-TIME:2025-08-09T00:30:20.015+0000')
[hls @ 0x56f982e6b840] Skip ('#EXT-X-PROGRAM-DATE-TIME:2025-08-09T00:30:21.015+0000')
[hls @ 0x56f982e6b840] Skip ('#EXT-X-PROGRAM-DATE-TIME:2025-08-09T00:30:22.015+0000')
[hls @ 0x56f982e6b840] Skip ('#EXT-X-PROGRAM-DATE-TIME:2025-08-09T00:30:23.015+0000')
[hls @ 0x56f982e6b840] Skip ('#EXT-X-PROGRAM-DATE-TIME:2025-08-09T00:30:24.015+0000')
[hls @ 0x56f982e6b840] Skip ('#EXT-X-PROGRAM-DATE-TIME:2025-08-09T00:30:25.015+0000')
[hls @ 0x56f982e6b840] Skip ('#EXT-X-PROGRAM-DATE-TIME:2025-08-09T00:30:26.015+0000')
[hls @ 0x56f982e6b840] Skip ('#EXT-X-PROGRAM-DATE-TIME:2025-08-09T00:30:27.015+0000')
[hls @ 0x56f982e6b840] Skip ('#EXT-X-PROGRAM-DATE-TIME:2025-08-09T00:30:28.015+0000')
[hls @ 0x56f982e6b840] Skip ('#EXT-X-PROGRAM-DATE-TIME:2025-08-09T00:30:29.015+0000')
[hls @ 0x56f982e6b840] Skip ('#EXT-X-PROGRAM-DATE-TIME:2025-08-09T00:30:30.015+0000')
[hls @ 0x56f982e6b840] Skip ('#EXT-X-PROGRAM-DATE-TIME:2025-08-09T00:30:31.015+0000')
[hls @ 0x56f982e6b840] Skip ('#EXT-X-PROGRAM-DATE-TIME:2025-08-09T00:30:32.015+0000')
[hls @ 0x56f982e6b840] Skip ('#EXT-X-PROGRAM-DATE-TIME:2025-08-09T00:30:33.015+0000')
[hls @ 0x56f982e6b840] Skip ('#EXT-X-PROGRAM-DATE-TIME:2025-08-09T00:30:34.015+0000')
[hls @ 0x56f982e6b840] Skip ('#EXT-X-PROGRAM-DATE-TIME:2025-08-09T00:30:35.015+0000')
[hls @ 0x56f982e6b840] Skip ('#EXT-X-PROGRAM-DATE-TIME:2025-08-09T00:30:36.015+0000')
[hls @ 0x56f982e6b840] Skip ('#EXT-X-PROGRAM-DATE-TIME:2025-08-09T00:30:37.015+0000')
[hls @ 0x56f982e6b840] Skip ('#EXT-X-PROGRAM-DATE-TIME:2025-08-09T00:30:38.015+0000')
[hls @ 0x56f982e6b840] Skip ('#EXT-X-PROGRAM-DATE-TIME:2025-08-09T00:30:39.015+0000')
[hls @ 0x56f982e6b840] Skip ('#EXT-X-PROGRAM-DATE-TIME:2025-08-09T00:30:40.015+0000')
[hls @ 0x56f982e6b840] Skip ('#EXT-X-PROGRAM-DATE-TIME:2025-08-09T00:30:41.015+0000')
[hls @ 0x56f982e6b840] Skip ('#EXT-X-PROGRAM-DATE-TIME:2025-08-09T00:30:42.015+0000')
[http @ 0x56f982e90b80] Opening 'http://localhost:8899/hls/0/stream-ckLjyN_Ng-4321.ts' for reading
[http @ 0x56f982e72d80] Opening 'http://localhost:8899/hls/0/stream.m3u8' for reading
[hls @ 0x56f982e6b840] Skip ('#EXT-X-VERSION:6')
[hls @ 0x56f982e6b840] Skip ('#EXT-X-INDEPENDENT-SEGMENTS')
[hls @ 0x56f982e6b840] Skip ('#EXT-X-PROGRAM-DATE-TIME:2025-08-09T00:30:19.015+0000')
[hls @ 0x56f982e6b840] Skip ('#EXT-X-PROGRAM-DATE-TIME:2025-08-09T00:30:20.015+0000')
[hls @ 0x56f982e6b840] Skip ('#EXT-X-PROGRAM-DATE-TIME:2025-08-09T00:30:21.015+0000')
[hls @ 0x56f982e6b840] Skip ('#EXT-X-PROGRAM-DATE-TIME:2025-08-09T00:30:22.015+0000')
[hls @ 0x56f982e6b840] Skip ('#EXT-X-PROGRAM-DATE-TIME:2025-08-09T00:30:23.015+0000')
[hls @ 0x56f982e6b840] Skip ('#EXT-X-PROGRAM-DATE-TIME:2025-08-09T00:30:24.015+0000')
[hls @ 0x56f982e6b840] Skip ('#EXT-X-PROGRAM-DATE-TIME:2025-08-09T00:30:25.015+0000')
[hls @ 0x56f982e6b840] Skip ('#EXT-X-PROGRAM-DATE-TIME:2025-08-09T00:30:26.015+0000')
[hls @ 0x56f982e6b840] Skip ('#EXT-X-PROGRAM-DATE-TIME:2025-08-09T00:30:27.015+0000')
[hls @ 0x56f982e6b840] Skip ('#EXT-X-PROGRAM-DATE-TIME:2025-08-09T00:30:28.015+0000')
[hls @ 0x56f982e6b840] Skip ('#EXT-X-PROGRAM-DATE-TIME:2025-08-09T00:30:29.015+0000')
[hls @ 0x56f982e6b840] Skip ('#EXT-X-PROGRAM-DATE-TIME:2025-08-09T00:30:30.015+0000')
[hls @ 0x56f982e6b840] Skip ('#EXT-X-PROGRAM-DATE-TIME:2025-08-09T00:30:31.015+0000')
[hls @ 0x56f982e6b840] Skip ('#EXT-X-PROGRAM-DATE-TIME:2025-08-09T00:30:32.015+0000')
[hls @ 0x56f982e6b840] Skip ('#EXT-X-PROGRAM-DATE-TIME:2025-08-09T00:30:33.015+0000')
[hls @ 0x56f982e6b840] Skip ('#EXT-X-PROGRAM-DATE-TIME:2025-08-09T00:30:34.015+0000')
[hls @ 0x56f982e6b840] Skip ('#EXT-X-PROGRAM-DATE-TIME:2025-08-09T00:30:35.015+0000')
[hls @ 0x56f982e6b840] Skip ('#EXT-X-PROGRAM-DATE-TIME:2025-08-09T00:30:36.015+0000')
[hls @ 0x56f982e6b840] Skip ('#EXT-X-PROGRAM-DATE-TIME:2025-08-09T00:30:37.015+0000')
[hls @ 0x56f982e6b840] Skip ('#EXT-X-PROGRAM-DATE-TIME:2025-08-09T00:30:38.015+0000')
[hls @ 0x56f982e6b840] Skip ('#EXT-X-PROGRAM-DATE-TIME:2025-08-09T00:30:39.015+0000')
[hls @ 0x56f982e6b840] Skip ('#EXT-X-PROGRAM-DATE-TIME:2025-08-09T00:30:40.015+0000')
[hls @ 0x56f982e6b840] Skip ('#EXT-X-PROGRAM-DATE-TIME:2025-08-09T00:30:41.015+0000')
[hls @ 0x56f982e6b840] Skip ('#EXT-X-PROGRAM-DATE-TIME:2025-08-09T00:30:42.015+0000')
[hls @ 0x56f982e6b840] Skip ('#EXT-X-PROGRAM-DATE-TIME:2025-08-09T00:30:43.015+0000')
[http @ 0x56f982e90b80] Opening 'http://localhost:8899/hls/0/stream-ckLjyN_Ng-4322.ts' for reading
Output #0, image2, to '/home/mistery/projects/ulx5m-live-bitsream/pic/ul5m-gs.jpg':
  Metadata:
    encoder         : Lavf60.16.100
  Stream #0:0: Video: mjpeg, yuvj420p(pc, bt709, progressive), 640x480 [SAR 4:3 DAR 16:9], q=2-31, 200 kb/s, 24 fps, 24 tbn
    Metadata:
      variant_bitrate : 409024
      encoder         : Lavc60.31.102 mjpeg
    Side data:
      cpb: bitrate max/min/avg: 0/0/200000 buffer size: 0 vbv_delay: N/A
frame=    0 fps=0.0 q=4.8 size=       0kB time=00:00:00.00 bitrate=N/A speed=   0x    [image2 @ 0x56f982ead000] The specified filename '/home/mistery/projects/ulx5m-live-bitsream/pic/ul5m-gs.jpg' does not contain an image sequence pattern or a pattern is invalid.
[image2 @ 0x56f982ead000] Use a pattern such as %03d for an image sequence or use the -update option (with -frames:v 1 if needed) to write a single image.
[out#0/image2 @ 0x56f982eeee80] video:12kB audio:0kB subtitle:0kB other streams:0kB global headers:0kB muxing overhead: unknown
frame=    1 fps=0.3 q=4.8 Lsize=N/A time=00:00:00.00 bitrate=N/A speed=   0x    
[main b109a31] New picture and log added
 3 files changed, 185 insertions(+)
 create mode 100644 flash.log
 create mode 100644 git_pull_ffmpeg.log
To github.com:goran-mahovlic/ulx5m-live-bitsream.git
   001d8c8..b109a31  main -> main
No new commits.
No new commits.
No new commits.
No new commits.
From github.com:goran-mahovlic/ulx5m-live-bitsream
   87a2b87..97e91d0  main       -> origin/main
New commits found. Pulling changes...
From github.com:goran-mahovlic/ulx5m-live-bitsream
 * branch            main       -> FETCH_HEAD
Updating 87a2b87..97e91d0
Fast-forward
 bit/ulx5m-gs.bit | Bin 64372 -> 96673 bytes
 1 file changed, 0 insertions(+), 0 deletions(-)
Power OFF
sudo: a terminal is required to read the password; either use the -S option to read from standard input or configure an askpass helper
sudo: a password is required
Sleep 5
sudo: a terminal is required to read the password; either use the -S option to read from standard input or configure an askpass helper
sudo: a password is required
Flashing FPGA
empty
Jtag frequency : requested 6000000Hz -> real 6000000Hz
Load SRAM via JTAG: [==================================================] 100.00%
Done
Waiting FPGA boot and stream change
Running ffmpeg snapshot...
ffmpeg version 6.1.1-3ubuntu5 Copyright (c) 2000-2023 the FFmpeg developers
  built with gcc 13 (Ubuntu 13.2.0-23ubuntu3)
  configuration: --prefix=/usr --extra-version=3ubuntu5 --toolchain=hardened --libdir=/usr/lib/x86_64-linux-gnu --incdir=/usr/include/x86_64-linux-gnu --arch=amd64 --enable-gpl --disable-stripping --disable-omx --enable-gnutls --enable-libaom --enable-libass --enable-libbs2b --enable-libcaca --enable-libcdio --enable-libcodec2 --enable-libdav1d --enable-libflite --enable-libfontconfig --enable-libfreetype --enable-libfribidi --enable-libglslang --enable-libgme --enable-libgsm --enable-libharfbuzz --enable-libmp3lame --enable-libmysofa --enable-libopenjpeg --enable-libopenmpt --enable-libopus --enable-librubberband --enable-libshine --enable-libsnappy --enable-libsoxr --enable-libspeex --enable-libtheora --enable-libtwolame --enable-libvidstab --enable-libvorbis --enable-libvpx --enable-libwebp --enable-libx265 --enable-libxml2 --enable-libxvid --enable-libzimg --enable-openal --enable-opencl --enable-opengl --disable-sndio --enable-libvpl --disable-libmfx --enable-libdc1394 --enable-libdrm --enable-libiec61883 --enable-chromaprint --enable-frei0r --enable-ladspa --enable-libbluray --enable-libjack --enable-libpulse --enable-librabbitmq --enable-librist --enable-libsrt --enable-libssh --enable-libsvtav1 --enable-libx264 --enable-libzmq --enable-libzvbi --enable-lv2 --enable-sdl2 --enable-libplacebo --enable-librav1e --enable-pocketsphinx --enable-librsvg --enable-libjxl --enable-shared
  libavutil      58. 29.100 / 58. 29.100
  libavcodec     60. 31.102 / 60. 31.102
  libavformat    60. 16.100 / 60. 16.100
  libavdevice    60.  3.100 / 60.  3.100
  libavfilter     9. 12.100 /  9. 12.100
  libswscale      7.  5.100 /  7.  5.100
  libswresample   4. 12.100 /  4. 12.100
  libpostproc    57.  3.100 / 57.  3.100
mime type is not rfc8216 compliant
[hls @ 0x570f9b1d4840] Skip ('#EXT-X-VERSION:6')
[hls @ 0x570f9b1d4840] Opening 'http://localhost:8899/hls/0/stream.m3u8' for reading
[hls @ 0x570f9b1d4840] Skip ('#EXT-X-VERSION:6')
[hls @ 0x570f9b1d4840] Skip ('#EXT-X-INDEPENDENT-SEGMENTS')
[hls @ 0x570f9b1d4840] Skip ('#EXT-X-PROGRAM-DATE-TIME:2025-08-09T00:35:15.015+0000')
[hls @ 0x570f9b1d4840] Skip ('#EXT-X-PROGRAM-DATE-TIME:2025-08-09T00:35:16.015+0000')
[hls @ 0x570f9b1d4840] Skip ('#EXT-X-PROGRAM-DATE-TIME:2025-08-09T00:35:17.015+0000')
[hls @ 0x570f9b1d4840] Skip ('#EXT-X-PROGRAM-DATE-TIME:2025-08-09T00:35:18.015+0000')
[hls @ 0x570f9b1d4840] Skip ('#EXT-X-PROGRAM-DATE-TIME:2025-08-09T00:35:19.015+0000')
[hls @ 0x570f9b1d4840] Skip ('#EXT-X-PROGRAM-DATE-TIME:2025-08-09T00:35:20.015+0000')
[hls @ 0x570f9b1d4840] Skip ('#EXT-X-PROGRAM-DATE-TIME:2025-08-09T00:35:21.015+0000')
[hls @ 0x570f9b1d4840] Skip ('#EXT-X-PROGRAM-DATE-TIME:2025-08-09T00:35:22.015+0000')
[hls @ 0x570f9b1d4840] Skip ('#EXT-X-PROGRAM-DATE-TIME:2025-08-09T00:35:23.015+0000')
[hls @ 0x570f9b1d4840] Skip ('#EXT-X-PROGRAM-DATE-TIME:2025-08-09T00:35:24.015+0000')
[hls @ 0x570f9b1d4840] Skip ('#EXT-X-PROGRAM-DATE-TIME:2025-08-09T00:35:25.015+0000')
[hls @ 0x570f9b1d4840] Skip ('#EXT-X-PROGRAM-DATE-TIME:2025-08-09T00:35:26.015+0000')
[hls @ 0x570f9b1d4840] Skip ('#EXT-X-PROGRAM-DATE-TIME:2025-08-09T00:35:27.015+0000')
[hls @ 0x570f9b1d4840] Skip ('#EXT-X-PROGRAM-DATE-TIME:2025-08-09T00:35:28.015+0000')
[hls @ 0x570f9b1d4840] Skip ('#EXT-X-PROGRAM-DATE-TIME:2025-08-09T00:35:29.015+0000')
[hls @ 0x570f9b1d4840] Skip ('#EXT-X-PROGRAM-DATE-TIME:2025-08-09T00:35:30.015+0000')
[hls @ 0x570f9b1d4840] Skip ('#EXT-X-PROGRAM-DATE-TIME:2025-08-09T00:35:31.015+0000')
[hls @ 0x570f9b1d4840] Skip ('#EXT-X-PROGRAM-DATE-TIME:2025-08-09T00:35:32.015+0000')
[hls @ 0x570f9b1d4840] Skip ('#EXT-X-PROGRAM-DATE-TIME:2025-08-09T00:35:33.015+0000')
[hls @ 0x570f9b1d4840] Skip ('#EXT-X-PROGRAM-DATE-TIME:2025-08-09T00:35:34.015+0000')
[hls @ 0x570f9b1d4840] Skip ('#EXT-X-PROGRAM-DATE-TIME:2025-08-09T00:35:35.015+0000')
[hls @ 0x570f9b1d4840] Skip ('#EXT-X-PROGRAM-DATE-TIME:2025-08-09T00:35:36.015+0000')
[hls @ 0x570f9b1d4840] Skip ('#EXT-X-PROGRAM-DATE-TIME:2025-08-09T00:35:37.015+0000')
[hls @ 0x570f9b1d4840] Skip ('#EXT-X-PROGRAM-DATE-TIME:2025-08-09T00:35:38.015+0000')
[hls @ 0x570f9b1d4840] Skip ('#EXT-X-PROGRAM-DATE-TIME:2025-08-09T00:35:39.015+0000')
[hls @ 0x570f9b1d4840] Opening 'http://localhost:8899/hls/0/stream-ckLjyN_Ng-4616.ts' for reading
[hls @ 0x570f9b1d4840] Opening 'http://localhost:8899/hls/0/stream-ckLjyN_Ng-4617.ts' for reading
Input #0, hls, from 'http://localhost:8899/hls/stream.m3u8':
  Duration: N/A, start: 4617.400000, bitrate: N/A
  Program 0 
    Metadata:
      variant_bitrate : 409024
  Stream #0:0: Video: h264 (Constrained Baseline) ([27][0][0][0] / 0x001B), yuv420p(tv, bt709), 640x480 [SAR 4:3 DAR 16:9], 24 fps, 24 tbr, 90k tbn
    Metadata:
      variant_bitrate : 409024
  Stream #0:1: Audio: aac (LC) ([15][0][0][0] / 0x000F), 48000 Hz, stereo, fltp
    Metadata:
      variant_bitrate : 409024
Stream mapping:
  Stream #0:0 -> #0:0 (h264 (native) -> mjpeg (native))
Press [q] to stop, [?] for help
[swscaler @ 0x570f9b2a9cc0] deprecated pixel format used, make sure you did set range correctly
    Last message repeated 1 times
[swscaler @ 0x570f9c23ccc0] deprecated pixel format used, make sure you did set range correctly
    Last message repeated 1 times
[http @ 0x570f9b1f9b80] Opening 'http://localhost:8899/hls/0/stream-ckLjyN_Ng-4618.ts' for reading
[http @ 0x570f9b1dbd80] Opening 'http://localhost:8899/hls/0/stream.m3u8' for reading
[hls @ 0x570f9b1d4840] Skip ('#EXT-X-VERSION:6')
[hls @ 0x570f9b1d4840] Skip ('#EXT-X-INDEPENDENT-SEGMENTS')
[hls @ 0x570f9b1d4840] Skip ('#EXT-X-PROGRAM-DATE-TIME:2025-08-09T00:35:16.015+0000')
[hls @ 0x570f9b1d4840] Skip ('#EXT-X-PROGRAM-DATE-TIME:2025-08-09T00:35:17.015+0000')
[hls @ 0x570f9b1d4840] Skip ('#EXT-X-PROGRAM-DATE-TIME:2025-08-09T00:35:18.015+0000')
[hls @ 0x570f9b1d4840] Skip ('#EXT-X-PROGRAM-DATE-TIME:2025-08-09T00:35:19.015+0000')
[hls @ 0x570f9b1d4840] Skip ('#EXT-X-PROGRAM-DATE-TIME:2025-08-09T00:35:20.015+0000')
[hls @ 0x570f9b1d4840] Skip ('#EXT-X-PROGRAM-DATE-TIME:2025-08-09T00:35:21.015+0000')
[hls @ 0x570f9b1d4840] Skip ('#EXT-X-PROGRAM-DATE-TIME:2025-08-09T00:35:22.015+0000')
[hls @ 0x570f9b1d4840] Skip ('#EXT-X-PROGRAM-DATE-TIME:2025-08-09T00:35:23.015+0000')
[hls @ 0x570f9b1d4840] Skip ('#EXT-X-PROGRAM-DATE-TIME:2025-08-09T00:35:24.015+0000')
[hls @ 0x570f9b1d4840] Skip ('#EXT-X-PROGRAM-DATE-TIME:2025-08-09T00:35:25.015+0000')
[hls @ 0x570f9b1d4840] Skip ('#EXT-X-PROGRAM-DATE-TIME:2025-08-09T00:35:26.015+0000')
[hls @ 0x570f9b1d4840] Skip ('#EXT-X-PROGRAM-DATE-TIME:2025-08-09T00:35:27.015+0000')
[hls @ 0x570f9b1d4840] Skip ('#EXT-X-PROGRAM-DATE-TIME:2025-08-09T00:35:28.015+0000')
[hls @ 0x570f9b1d4840] Skip ('#EXT-X-PROGRAM-DATE-TIME:2025-08-09T00:35:29.015+0000')
[hls @ 0x570f9b1d4840] Skip ('#EXT-X-PROGRAM-DATE-TIME:2025-08-09T00:35:30.015+0000')
[hls @ 0x570f9b1d4840] Skip ('#EXT-X-PROGRAM-DATE-TIME:2025-08-09T00:35:31.015+0000')
[hls @ 0x570f9b1d4840] Skip ('#EXT-X-PROGRAM-DATE-TIME:2025-08-09T00:35:32.015+0000')
[hls @ 0x570f9b1d4840] Skip ('#EXT-X-PROGRAM-DATE-TIME:2025-08-09T00:35:33.015+0000')
[hls @ 0x570f9b1d4840] Skip ('#EXT-X-PROGRAM-DATE-TIME:2025-08-09T00:35:34.015+0000')
[hls @ 0x570f9b1d4840] Skip ('#EXT-X-PROGRAM-DATE-TIME:2025-08-09T00:35:35.015+0000')
[hls @ 0x570f9b1d4840] Skip ('#EXT-X-PROGRAM-DATE-TIME:2025-08-09T00:35:36.015+0000')
[hls @ 0x570f9b1d4840] Skip ('#EXT-X-PROGRAM-DATE-TIME:2025-08-09T00:35:37.015+0000')
[hls @ 0x570f9b1d4840] Skip ('#EXT-X-PROGRAM-DATE-TIME:2025-08-09T00:35:38.015+0000')
[hls @ 0x570f9b1d4840] Skip ('#EXT-X-PROGRAM-DATE-TIME:2025-08-09T00:35:39.015+0000')
[hls @ 0x570f9b1d4840] Skip ('#EXT-X-PROGRAM-DATE-TIME:2025-08-09T00:35:40.015+0000')
[http @ 0x570f9b1f9b80] Opening 'http://localhost:8899/hls/0/stream-ckLjyN_Ng-4619.ts' for reading
[http @ 0x570f9b1dbd80] Opening 'http://localhost:8899/hls/0/stream.m3u8' for reading
[hls @ 0x570f9b1d4840] Skip ('#EXT-X-VERSION:6')
[hls @ 0x570f9b1d4840] Skip ('#EXT-X-INDEPENDENT-SEGMENTS')
[hls @ 0x570f9b1d4840] Skip ('#EXT-X-PROGRAM-DATE-TIME:2025-08-09T00:35:17.015+0000')
[hls @ 0x570f9b1d4840] Skip ('#EXT-X-PROGRAM-DATE-TIME:2025-08-09T00:35:18.015+0000')
[hls @ 0x570f9b1d4840] Skip ('#EXT-X-PROGRAM-DATE-TIME:2025-08-09T00:35:19.015+0000')
[hls @ 0x570f9b1d4840] Skip ('#EXT-X-PROGRAM-DATE-TIME:2025-08-09T00:35:20.015+0000')
[hls @ 0x570f9b1d4840] Skip ('#EXT-X-PROGRAM-DATE-TIME:2025-08-09T00:35:21.015+0000')
[hls @ 0x570f9b1d4840] Skip ('#EXT-X-PROGRAM-DATE-TIME:2025-08-09T00:35:22.015+0000')
[hls @ 0x570f9b1d4840] Skip ('#EXT-X-PROGRAM-DATE-TIME:2025-08-09T00:35:23.015+0000')
[hls @ 0x570f9b1d4840] Skip ('#EXT-X-PROGRAM-DATE-TIME:2025-08-09T00:35:24.015+0000')
[hls @ 0x570f9b1d4840] Skip ('#EXT-X-PROGRAM-DATE-TIME:2025-08-09T00:35:25.015+0000')
[hls @ 0x570f9b1d4840] Skip ('#EXT-X-PROGRAM-DATE-TIME:2025-08-09T00:35:26.015+0000')
[hls @ 0x570f9b1d4840] Skip ('#EXT-X-PROGRAM-DATE-TIME:2025-08-09T00:35:27.015+0000')
[hls @ 0x570f9b1d4840] Skip ('#EXT-X-PROGRAM-DATE-TIME:2025-08-09T00:35:28.015+0000')
[hls @ 0x570f9b1d4840] Skip ('#EXT-X-PROGRAM-DATE-TIME:2025-08-09T00:35:29.015+0000')
[hls @ 0x570f9b1d4840] Skip ('#EXT-X-PROGRAM-DATE-TIME:2025-08-09T00:35:30.015+0000')
[hls @ 0x570f9b1d4840] Skip ('#EXT-X-PROGRAM-DATE-TIME:2025-08-09T00:35:31.015+0000')
[hls @ 0x570f9b1d4840] Skip ('#EXT-X-PROGRAM-DATE-TIME:2025-08-09T00:35:32.015+0000')
[hls @ 0x570f9b1d4840] Skip ('#EXT-X-PROGRAM-DATE-TIME:2025-08-09T00:35:33.015+0000')
[hls @ 0x570f9b1d4840] Skip ('#EXT-X-PROGRAM-DATE-TIME:2025-08-09T00:35:34.015+0000')
[hls @ 0x570f9b1d4840] Skip ('#EXT-X-PROGRAM-DATE-TIME:2025-08-09T00:35:35.015+0000')
[hls @ 0x570f9b1d4840] Skip ('#EXT-X-PROGRAM-DATE-TIME:2025-08-09T00:35:36.015+0000')
[hls @ 0x570f9b1d4840] Skip ('#EXT-X-PROGRAM-DATE-TIME:2025-08-09T00:35:37.015+0000')
[hls @ 0x570f9b1d4840] Skip ('#EXT-X-PROGRAM-DATE-TIME:2025-08-09T00:35:38.015+0000')
[hls @ 0x570f9b1d4840] Skip ('#EXT-X-PROGRAM-DATE-TIME:2025-08-09T00:35:39.015+0000')
[hls @ 0x570f9b1d4840] Skip ('#EXT-X-PROGRAM-DATE-TIME:2025-08-09T00:35:40.015+0000')
[hls @ 0x570f9b1d4840] Skip ('#EXT-X-PROGRAM-DATE-TIME:2025-08-09T00:35:41.015+0000')
[http @ 0x570f9b1f9b80] Opening 'http://localhost:8899/hls/0/stream-ckLjyN_Ng-4620.ts' for reading
[http @ 0x570f9b1dbd80] Opening 'http://localhost:8899/hls/0/stream.m3u8' for reading
[hls @ 0x570f9b1d4840] Skip ('#EXT-X-VERSION:6')
[hls @ 0x570f9b1d4840] Skip ('#EXT-X-INDEPENDENT-SEGMENTS')
[hls @ 0x570f9b1d4840] Skip ('#EXT-X-PROGRAM-DATE-TIME:2025-08-09T00:35:18.015+0000')
[hls @ 0x570f9b1d4840] Skip ('#EXT-X-PROGRAM-DATE-TIME:2025-08-09T00:35:19.015+0000')
[hls @ 0x570f9b1d4840] Skip ('#EXT-X-PROGRAM-DATE-TIME:2025-08-09T00:35:20.015+0000')
[hls @ 0x570f9b1d4840] Skip ('#EXT-X-PROGRAM-DATE-TIME:2025-08-09T00:35:21.015+0000')
[hls @ 0x570f9b1d4840] Skip ('#EXT-X-PROGRAM-DATE-TIME:2025-08-09T00:35:22.015+0000')
[hls @ 0x570f9b1d4840] Skip ('#EXT-X-PROGRAM-DATE-TIME:2025-08-09T00:35:23.015+0000')
[hls @ 0x570f9b1d4840] Skip ('#EXT-X-PROGRAM-DATE-TIME:2025-08-09T00:35:24.015+0000')
[hls @ 0x570f9b1d4840] Skip ('#EXT-X-PROGRAM-DATE-TIME:2025-08-09T00:35:25.015+0000')
[hls @ 0x570f9b1d4840] Skip ('#EXT-X-PROGRAM-DATE-TIME:2025-08-09T00:35:26.015+0000')
[hls @ 0x570f9b1d4840] Skip ('#EXT-X-PROGRAM-DATE-TIME:2025-08-09T00:35:27.015+0000')
[hls @ 0x570f9b1d4840] Skip ('#EXT-X-PROGRAM-DATE-TIME:2025-08-09T00:35:28.015+0000')
[hls @ 0x570f9b1d4840] Skip ('#EXT-X-PROGRAM-DATE-TIME:2025-08-09T00:35:29.015+0000')
[hls @ 0x570f9b1d4840] Skip ('#EXT-X-PROGRAM-DATE-TIME:2025-08-09T00:35:30.015+0000')
[hls @ 0x570f9b1d4840] Skip ('#EXT-X-PROGRAM-DATE-TIME:2025-08-09T00:35:31.015+0000')
[hls @ 0x570f9b1d4840] Skip ('#EXT-X-PROGRAM-DATE-TIME:2025-08-09T00:35:32.015+0000')
[hls @ 0x570f9b1d4840] Skip ('#EXT-X-PROGRAM-DATE-TIME:2025-08-09T00:35:33.015+0000')
[hls @ 0x570f9b1d4840] Skip ('#EXT-X-PROGRAM-DATE-TIME:2025-08-09T00:35:34.015+0000')
[hls @ 0x570f9b1d4840] Skip ('#EXT-X-PROGRAM-DATE-TIME:2025-08-09T00:35:35.015+0000')
[hls @ 0x570f9b1d4840] Skip ('#EXT-X-PROGRAM-DATE-TIME:2025-08-09T00:35:36.015+0000')
[hls @ 0x570f9b1d4840] Skip ('#EXT-X-PROGRAM-DATE-TIME:2025-08-09T00:35:37.015+0000')
[hls @ 0x570f9b1d4840] Skip ('#EXT-X-PROGRAM-DATE-TIME:2025-08-09T00:35:38.015+0000')
[hls @ 0x570f9b1d4840] Skip ('#EXT-X-PROGRAM-DATE-TIME:2025-08-09T00:35:39.015+0000')
[hls @ 0x570f9b1d4840] Skip ('#EXT-X-PROGRAM-DATE-TIME:2025-08-09T00:35:40.015+0000')
[hls @ 0x570f9b1d4840] Skip ('#EXT-X-PROGRAM-DATE-TIME:2025-08-09T00:35:41.015+0000')
[hls @ 0x570f9b1d4840] Skip ('#EXT-X-PROGRAM-DATE-TIME:2025-08-09T00:35:42.015+0000')
[http @ 0x570f9b1f9b80] Opening 'http://localhost:8899/hls/0/stream-ckLjyN_Ng-4621.ts' for reading
Output #0, image2, to '/home/mistery/projects/ulx5m-live-bitsream/pic/ul5m-gs.jpg':
  Metadata:
    encoder         : Lavf60.16.100
  Stream #0:0: Video: mjpeg, yuvj420p(pc, bt709, progressive), 640x480 [SAR 4:3 DAR 16:9], q=2-31, 200 kb/s, 24 fps, 24 tbn
    Metadata:
      variant_bitrate : 409024
      encoder         : Lavc60.31.102 mjpeg
    Side data:
      cpb: bitrate max/min/avg: 0/0/200000 buffer size: 0 vbv_delay: N/A
frame=    0 fps=0.0 q=4.3 size=       0kB time=00:00:00.00 bitrate=N/A speed=   0x    [image2 @ 0x570f9b3b0cc0] The specified filename '/home/mistery/projects/ulx5m-live-bitsream/pic/ul5m-gs.jpg' does not contain an image sequence pattern or a pattern is invalid.
[image2 @ 0x570f9b3b0cc0] Use a pattern such as %03d for an image sequence or use the -update option (with -frames:v 1 if needed) to write a single image.
[out#0/image2 @ 0x570f9b256280] video:9kB audio:0kB subtitle:0kB other streams:0kB global headers:0kB muxing overhead: unknown
frame=    1 fps=0.3 q=4.3 Lsize=N/A time=00:00:00.00 bitrate=N/A speed=   0x    
[main 1745cbb] New picture and log added
 2 files changed, 194 insertions(+)
To github.com:goran-mahovlic/ulx5m-live-bitsream.git
   97e91d0..1745cbb  main -> main
No new commits.
No new commits.
No new commits.
New commits found. Pulling changes...
From github.com:goran-mahovlic/ulx5m-live-bitsream
 * branch            main       -> FETCH_HEAD
Already up to date.
Power OFF
sudo: a terminal is required to read the password; either use the -S option to read from standard input or configure an askpass helper
sudo: a password is required
Sleep 5
sudo: a terminal is required to read the password; either use the -S option to read from standard input or configure an askpass helper
sudo: a password is required
Flashing FPGA
empty
Jtag frequency : requested 6000000Hz -> real 6000000Hz
Load SRAM via JTAG: [==================================================] 100.00%
Done
Waiting FPGA boot and stream change
Running ffmpeg snapshot...
ffmpeg version 6.1.1-3ubuntu5 Copyright (c) 2000-2023 the FFmpeg developers
  built with gcc 13 (Ubuntu 13.2.0-23ubuntu3)
  configuration: --prefix=/usr --extra-version=3ubuntu5 --toolchain=hardened --libdir=/usr/lib/x86_64-linux-gnu --incdir=/usr/include/x86_64-linux-gnu --arch=amd64 --enable-gpl --disable-stripping --disable-omx --enable-gnutls --enable-libaom --enable-libass --enable-libbs2b --enable-libcaca --enable-libcdio --enable-libcodec2 --enable-libdav1d --enable-libflite --enable-libfontconfig --enable-libfreetype --enable-libfribidi --enable-libglslang --enable-libgme --enable-libgsm --enable-libharfbuzz --enable-libmp3lame --enable-libmysofa --enable-libopenjpeg --enable-libopenmpt --enable-libopus --enable-librubberband --enable-libshine --enable-libsnappy --enable-libsoxr --enable-libspeex --enable-libtheora --enable-libtwolame --enable-libvidstab --enable-libvorbis --enable-libvpx --enable-libwebp --enable-libx265 --enable-libxml2 --enable-libxvid --enable-libzimg --enable-openal --enable-opencl --enable-opengl --disable-sndio --enable-libvpl --disable-libmfx --enable-libdc1394 --enable-libdrm --enable-libiec61883 --enable-chromaprint --enable-frei0r --enable-ladspa --enable-libbluray --enable-libjack --enable-libpulse --enable-librabbitmq --enable-librist --enable-libsrt --enable-libssh --enable-libsvtav1 --enable-libx264 --enable-libzmq --enable-libzvbi --enable-lv2 --enable-sdl2 --enable-libplacebo --enable-librav1e --enable-pocketsphinx --enable-librsvg --enable-libjxl --enable-shared
  libavutil      58. 29.100 / 58. 29.100
  libavcodec     60. 31.102 / 60. 31.102
  libavformat    60. 16.100 / 60. 16.100
  libavdevice    60.  3.100 / 60.  3.100
  libavfilter     9. 12.100 /  9. 12.100
  libswscale      7.  5.100 /  7.  5.100
  libswresample   4. 12.100 /  4. 12.100
  libpostproc    57.  3.100 / 57.  3.100
mime type is not rfc8216 compliant
[hls @ 0x62ce41e75840] Skip ('#EXT-X-VERSION:6')
[hls @ 0x62ce41e75840] Opening 'http://localhost:8899/hls/0/stream.m3u8' for reading
[hls @ 0x62ce41e75840] Skip ('#EXT-X-VERSION:6')
[hls @ 0x62ce41e75840] Skip ('#EXT-X-INDEPENDENT-SEGMENTS')
[hls @ 0x62ce41e75840] Skip ('#EXT-X-PROGRAM-DATE-TIME:2025-08-09T00:39:15.015+0000')
[hls @ 0x62ce41e75840] Skip ('#EXT-X-PROGRAM-DATE-TIME:2025-08-09T00:39:16.015+0000')
[hls @ 0x62ce41e75840] Skip ('#EXT-X-PROGRAM-DATE-TIME:2025-08-09T00:39:17.015+0000')
[hls @ 0x62ce41e75840] Skip ('#EXT-X-PROGRAM-DATE-TIME:2025-08-09T00:39:18.015+0000')
[hls @ 0x62ce41e75840] Skip ('#EXT-X-PROGRAM-DATE-TIME:2025-08-09T00:39:19.015+0000')
[hls @ 0x62ce41e75840] Skip ('#EXT-X-PROGRAM-DATE-TIME:2025-08-09T00:39:20.015+0000')
[hls @ 0x62ce41e75840] Skip ('#EXT-X-PROGRAM-DATE-TIME:2025-08-09T00:39:21.015+0000')
[hls @ 0x62ce41e75840] Skip ('#EXT-X-PROGRAM-DATE-TIME:2025-08-09T00:39:22.015+0000')
[hls @ 0x62ce41e75840] Skip ('#EXT-X-PROGRAM-DATE-TIME:2025-08-09T00:39:23.015+0000')
[hls @ 0x62ce41e75840] Skip ('#EXT-X-PROGRAM-DATE-TIME:2025-08-09T00:39:24.015+0000')
[hls @ 0x62ce41e75840] Skip ('#EXT-X-PROGRAM-DATE-TIME:2025-08-09T00:39:25.015+0000')
[hls @ 0x62ce41e75840] Skip ('#EXT-X-PROGRAM-DATE-TIME:2025-08-09T00:39:26.015+0000')
[hls @ 0x62ce41e75840] Skip ('#EXT-X-PROGRAM-DATE-TIME:2025-08-09T00:39:27.015+0000')
[hls @ 0x62ce41e75840] Skip ('#EXT-X-PROGRAM-DATE-TIME:2025-08-09T00:39:28.015+0000')
[hls @ 0x62ce41e75840] Skip ('#EXT-X-PROGRAM-DATE-TIME:2025-08-09T00:39:29.015+0000')
[hls @ 0x62ce41e75840] Skip ('#EXT-X-PROGRAM-DATE-TIME:2025-08-09T00:39:30.015+0000')
[hls @ 0x62ce41e75840] Skip ('#EXT-X-PROGRAM-DATE-TIME:2025-08-09T00:39:31.015+0000')
[hls @ 0x62ce41e75840] Skip ('#EXT-X-PROGRAM-DATE-TIME:2025-08-09T00:39:32.015+0000')
[hls @ 0x62ce41e75840] Skip ('#EXT-X-PROGRAM-DATE-TIME:2025-08-09T00:39:33.015+0000')
[hls @ 0x62ce41e75840] Skip ('#EXT-X-PROGRAM-DATE-TIME:2025-08-09T00:39:34.015+0000')
[hls @ 0x62ce41e75840] Skip ('#EXT-X-PROGRAM-DATE-TIME:2025-08-09T00:39:35.015+0000')
[hls @ 0x62ce41e75840] Skip ('#EXT-X-PROGRAM-DATE-TIME:2025-08-09T00:39:36.015+0000')
[hls @ 0x62ce41e75840] Skip ('#EXT-X-PROGRAM-DATE-TIME:2025-08-09T00:39:37.015+0000')
[hls @ 0x62ce41e75840] Skip ('#EXT-X-PROGRAM-DATE-TIME:2025-08-09T00:39:38.015+0000')
[hls @ 0x62ce41e75840] Skip ('#EXT-X-PROGRAM-DATE-TIME:2025-08-09T00:39:39.015+0000')
[hls @ 0x62ce41e75840] Opening 'http://localhost:8899/hls/0/stream-ckLjyN_Ng-4856.ts' for reading
[hls @ 0x62ce41e75840] Opening 'http://localhost:8899/hls/0/stream-ckLjyN_Ng-4857.ts' for reading
Input #0, hls, from 'http://localhost:8899/hls/stream.m3u8':
  Duration: N/A, start: 4857.400000, bitrate: N/A
  Program 0 
    Metadata:
      variant_bitrate : 409024
  Stream #0:0: Video: h264 (Constrained Baseline) ([27][0][0][0] / 0x001B), yuv420p(tv, bt709), 640x480 [SAR 4:3 DAR 16:9], 24 fps, 24 tbr, 90k tbn
    Metadata:
      variant_bitrate : 409024
  Stream #0:1: Audio: aac (LC) ([15][0][0][0] / 0x000F), 48000 Hz, stereo, fltp
    Metadata:
      variant_bitrate : 409024
Stream mapping:
  Stream #0:0 -> #0:0 (h264 (native) -> mjpeg (native))
Press [q] to stop, [?] for help
[swscaler @ 0x62ce41f4a740] deprecated pixel format used, make sure you did set range correctly
    Last message repeated 3 times
[http @ 0x62ce41e9ab80] Opening 'http://localhost:8899/hls/0/stream-ckLjyN_Ng-4858.ts' for reading
[http @ 0x62ce41e7cd80] Opening 'http://localhost:8899/hls/0/stream.m3u8' for reading
[hls @ 0x62ce41e75840] Skip ('#EXT-X-VERSION:6')
[hls @ 0x62ce41e75840] Skip ('#EXT-X-INDEPENDENT-SEGMENTS')
[hls @ 0x62ce41e75840] Skip ('#EXT-X-PROGRAM-DATE-TIME:2025-08-09T00:39:16.015+0000')
[hls @ 0x62ce41e75840] Skip ('#EXT-X-PROGRAM-DATE-TIME:2025-08-09T00:39:17.015+0000')
[hls @ 0x62ce41e75840] Skip ('#EXT-X-PROGRAM-DATE-TIME:2025-08-09T00:39:18.015+0000')
[hls @ 0x62ce41e75840] Skip ('#EXT-X-PROGRAM-DATE-TIME:2025-08-09T00:39:19.015+0000')
[hls @ 0x62ce41e75840] Skip ('#EXT-X-PROGRAM-DATE-TIME:2025-08-09T00:39:20.015+0000')
[hls @ 0x62ce41e75840] Skip ('#EXT-X-PROGRAM-DATE-TIME:2025-08-09T00:39:21.015+0000')
[hls @ 0x62ce41e75840] Skip ('#EXT-X-PROGRAM-DATE-TIME:2025-08-09T00:39:22.015+0000')
[hls @ 0x62ce41e75840] Skip ('#EXT-X-PROGRAM-DATE-TIME:2025-08-09T00:39:23.015+0000')
[hls @ 0x62ce41e75840] Skip ('#EXT-X-PROGRAM-DATE-TIME:2025-08-09T00:39:24.015+0000')
[hls @ 0x62ce41e75840] Skip ('#EXT-X-PROGRAM-DATE-TIME:2025-08-09T00:39:25.015+0000')
[hls @ 0x62ce41e75840] Skip ('#EXT-X-PROGRAM-DATE-TIME:2025-08-09T00:39:26.015+0000')
[hls @ 0x62ce41e75840] Skip ('#EXT-X-PROGRAM-DATE-TIME:2025-08-09T00:39:27.015+0000')
[hls @ 0x62ce41e75840] Skip ('#EXT-X-PROGRAM-DATE-TIME:2025-08-09T00:39:28.015+0000')
[hls @ 0x62ce41e75840] Skip ('#EXT-X-PROGRAM-DATE-TIME:2025-08-09T00:39:29.015+0000')
[hls @ 0x62ce41e75840] Skip ('#EXT-X-PROGRAM-DATE-TIME:2025-08-09T00:39:30.015+0000')
[hls @ 0x62ce41e75840] Skip ('#EXT-X-PROGRAM-DATE-TIME:2025-08-09T00:39:31.015+0000')
[hls @ 0x62ce41e75840] Skip ('#EXT-X-PROGRAM-DATE-TIME:2025-08-09T00:39:32.015+0000')
[hls @ 0x62ce41e75840] Skip ('#EXT-X-PROGRAM-DATE-TIME:2025-08-09T00:39:33.015+0000')
[hls @ 0x62ce41e75840] Skip ('#EXT-X-PROGRAM-DATE-TIME:2025-08-09T00:39:34.015+0000')
[hls @ 0x62ce41e75840] Skip ('#EXT-X-PROGRAM-DATE-TIME:2025-08-09T00:39:35.015+0000')
[hls @ 0x62ce41e75840] Skip ('#EXT-X-PROGRAM-DATE-TIME:2025-08-09T00:39:36.015+0000')
[hls @ 0x62ce41e75840] Skip ('#EXT-X-PROGRAM-DATE-TIME:2025-08-09T00:39:37.015+0000')
[hls @ 0x62ce41e75840] Skip ('#EXT-X-PROGRAM-DATE-TIME:2025-08-09T00:39:38.015+0000')
[hls @ 0x62ce41e75840] Skip ('#EXT-X-PROGRAM-DATE-TIME:2025-08-09T00:39:39.015+0000')
[hls @ 0x62ce41e75840] Skip ('#EXT-X-PROGRAM-DATE-TIME:2025-08-09T00:39:40.015+0000')
[http @ 0x62ce41e9ab80] Opening 'http://localhost:8899/hls/0/stream-ckLjyN_Ng-4859.ts' for reading
[http @ 0x62ce41e7cd80] Opening 'http://localhost:8899/hls/0/stream.m3u8' for reading
[hls @ 0x62ce41e75840] Skip ('#EXT-X-VERSION:6')
[hls @ 0x62ce41e75840] Skip ('#EXT-X-INDEPENDENT-SEGMENTS')
[hls @ 0x62ce41e75840] Skip ('#EXT-X-PROGRAM-DATE-TIME:2025-08-09T00:39:17.015+0000')
[hls @ 0x62ce41e75840] Skip ('#EXT-X-PROGRAM-DATE-TIME:2025-08-09T00:39:18.015+0000')
[hls @ 0x62ce41e75840] Skip ('#EXT-X-PROGRAM-DATE-TIME:2025-08-09T00:39:19.015+0000')
[hls @ 0x62ce41e75840] Skip ('#EXT-X-PROGRAM-DATE-TIME:2025-08-09T00:39:20.015+0000')
[hls @ 0x62ce41e75840] Skip ('#EXT-X-PROGRAM-DATE-TIME:2025-08-09T00:39:21.015+0000')
[hls @ 0x62ce41e75840] Skip ('#EXT-X-PROGRAM-DATE-TIME:2025-08-09T00:39:22.015+0000')
[hls @ 0x62ce41e75840] Skip ('#EXT-X-PROGRAM-DATE-TIME:2025-08-09T00:39:23.015+0000')
[hls @ 0x62ce41e75840] Skip ('#EXT-X-PROGRAM-DATE-TIME:2025-08-09T00:39:24.015+0000')
[hls @ 0x62ce41e75840] Skip ('#EXT-X-PROGRAM-DATE-TIME:2025-08-09T00:39:25.015+0000')
[hls @ 0x62ce41e75840] Skip ('#EXT-X-PROGRAM-DATE-TIME:2025-08-09T00:39:26.015+0000')
[hls @ 0x62ce41e75840] Skip ('#EXT-X-PROGRAM-DATE-TIME:2025-08-09T00:39:27.015+0000')
[hls @ 0x62ce41e75840] Skip ('#EXT-X-PROGRAM-DATE-TIME:2025-08-09T00:39:28.015+0000')
[hls @ 0x62ce41e75840] Skip ('#EXT-X-PROGRAM-DATE-TIME:2025-08-09T00:39:29.015+0000')
[hls @ 0x62ce41e75840] Skip ('#EXT-X-PROGRAM-DATE-TIME:2025-08-09T00:39:30.015+0000')
[hls @ 0x62ce41e75840] Skip ('#EXT-X-PROGRAM-DATE-TIME:2025-08-09T00:39:31.015+0000')
[hls @ 0x62ce41e75840] Skip ('#EXT-X-PROGRAM-DATE-TIME:2025-08-09T00:39:32.015+0000')
[hls @ 0x62ce41e75840] Skip ('#EXT-X-PROGRAM-DATE-TIME:2025-08-09T00:39:33.015+0000')
[hls @ 0x62ce41e75840] Skip ('#EXT-X-PROGRAM-DATE-TIME:2025-08-09T00:39:34.015+0000')
[hls @ 0x62ce41e75840] Skip ('#EXT-X-PROGRAM-DATE-TIME:2025-08-09T00:39:35.015+0000')
[hls @ 0x62ce41e75840] Skip ('#EXT-X-PROGRAM-DATE-TIME:2025-08-09T00:39:36.015+0000')
[hls @ 0x62ce41e75840] Skip ('#EXT-X-PROGRAM-DATE-TIME:2025-08-09T00:39:37.015+0000')
[hls @ 0x62ce41e75840] Skip ('#EXT-X-PROGRAM-DATE-TIME:2025-08-09T00:39:38.015+0000')
[hls @ 0x62ce41e75840] Skip ('#EXT-X-PROGRAM-DATE-TIME:2025-08-09T00:39:39.015+0000')
[hls @ 0x62ce41e75840] Skip ('#EXT-X-PROGRAM-DATE-TIME:2025-08-09T00:39:40.015+0000')
[hls @ 0x62ce41e75840] Skip ('#EXT-X-PROGRAM-DATE-TIME:2025-08-09T00:39:41.015+0000')
[http @ 0x62ce41e9ab80] Opening 'http://localhost:8899/hls/0/stream-ckLjyN_Ng-4860.ts' for reading
[http @ 0x62ce41e7cd80] Opening 'http://localhost:8899/hls/0/stream.m3u8' for reading
[hls @ 0x62ce41e75840] Skip ('#EXT-X-VERSION:6')
[hls @ 0x62ce41e75840] Skip ('#EXT-X-INDEPENDENT-SEGMENTS')
[hls @ 0x62ce41e75840] Skip ('#EXT-X-PROGRAM-DATE-TIME:2025-08-09T00:39:18.015+0000')
[hls @ 0x62ce41e75840] Skip ('#EXT-X-PROGRAM-DATE-TIME:2025-08-09T00:39:19.015+0000')
[hls @ 0x62ce41e75840] Skip ('#EXT-X-PROGRAM-DATE-TIME:2025-08-09T00:39:20.015+0000')
[hls @ 0x62ce41e75840] Skip ('#EXT-X-PROGRAM-DATE-TIME:2025-08-09T00:39:21.015+0000')
[hls @ 0x62ce41e75840] Skip ('#EXT-X-PROGRAM-DATE-TIME:2025-08-09T00:39:22.015+0000')
[hls @ 0x62ce41e75840] Skip ('#EXT-X-PROGRAM-DATE-TIME:2025-08-09T00:39:23.015+0000')
[hls @ 0x62ce41e75840] Skip ('#EXT-X-PROGRAM-DATE-TIME:2025-08-09T00:39:24.015+0000')
[hls @ 0x62ce41e75840] Skip ('#EXT-X-PROGRAM-DATE-TIME:2025-08-09T00:39:25.015+0000')
[hls @ 0x62ce41e75840] Skip ('#EXT-X-PROGRAM-DATE-TIME:2025-08-09T00:39:26.015+0000')
[hls @ 0x62ce41e75840] Skip ('#EXT-X-PROGRAM-DATE-TIME:2025-08-09T00:39:27.015+0000')
[hls @ 0x62ce41e75840] Skip ('#EXT-X-PROGRAM-DATE-TIME:2025-08-09T00:39:28.015+0000')
[hls @ 0x62ce41e75840] Skip ('#EXT-X-PROGRAM-DATE-TIME:2025-08-09T00:39:29.015+0000')
[hls @ 0x62ce41e75840] Skip ('#EXT-X-PROGRAM-DATE-TIME:2025-08-09T00:39:30.015+0000')
[hls @ 0x62ce41e75840] Skip ('#EXT-X-PROGRAM-DATE-TIME:2025-08-09T00:39:31.015+0000')
[hls @ 0x62ce41e75840] Skip ('#EXT-X-PROGRAM-DATE-TIME:2025-08-09T00:39:32.015+0000')
[hls @ 0x62ce41e75840] Skip ('#EXT-X-PROGRAM-DATE-TIME:2025-08-09T00:39:33.015+0000')
[hls @ 0x62ce41e75840] Skip ('#EXT-X-PROGRAM-DATE-TIME:2025-08-09T00:39:34.015+0000')
[hls @ 0x62ce41e75840] Skip ('#EXT-X-PROGRAM-DATE-TIME:2025-08-09T00:39:35.015+0000')
[hls @ 0x62ce41e75840] Skip ('#EXT-X-PROGRAM-DATE-TIME:2025-08-09T00:39:36.015+0000')
[hls @ 0x62ce41e75840] Skip ('#EXT-X-PROGRAM-DATE-TIME:2025-08-09T00:39:37.015+0000')
[hls @ 0x62ce41e75840] Skip ('#EXT-X-PROGRAM-DATE-TIME:2025-08-09T00:39:38.015+0000')
[hls @ 0x62ce41e75840] Skip ('#EXT-X-PROGRAM-DATE-TIME:2025-08-09T00:39:39.015+0000')
[hls @ 0x62ce41e75840] Skip ('#EXT-X-PROGRAM-DATE-TIME:2025-08-09T00:39:40.015+0000')
[hls @ 0x62ce41e75840] Skip ('#EXT-X-PROGRAM-DATE-TIME:2025-08-09T00:39:41.015+0000')
[hls @ 0x62ce41e75840] Skip ('#EXT-X-PROGRAM-DATE-TIME:2025-08-09T00:39:42.015+0000')
[http @ 0x62ce41e9ab80] Opening 'http://localhost:8899/hls/0/stream-ckLjyN_Ng-4861.ts' for reading
Output #0, image2, to '/home/mistery/projects/ulx5m-live-bitsream/pic/ul5m-gs.jpg':
  Metadata:
    encoder         : Lavf60.16.100
  Stream #0:0: Video: mjpeg, yuvj420p(pc, bt709, progressive), 640x480 [SAR 4:3 DAR 16:9], q=2-31, 200 kb/s, 24 fps, 24 tbn
    Metadata:
      variant_bitrate : 409024
      encoder         : Lavc60.31.102 mjpeg
    Side data:
      cpb: bitrate max/min/avg: 0/0/200000 buffer size: 0 vbv_delay: N/A
frame=    0 fps=0.0 q=4.3 size=       0kB time=00:00:00.00 bitrate=N/A speed=   0x    [image2 @ 0x62ce41eda900] The specified filename '/home/mistery/projects/ulx5m-live-bitsream/pic/ul5m-gs.jpg' does not contain an image sequence pattern or a pattern is invalid.
[image2 @ 0x62ce41eda900] Use a pattern such as %03d for an image sequence or use the -update option (with -frames:v 1 if needed) to write a single image.
[out#0/image2 @ 0x62ce41f22ec0] video:10kB audio:0kB subtitle:0kB other streams:0kB global headers:0kB muxing overhead: unknown
frame=    1 fps=0.3 q=4.3 Lsize=N/A time=00:00:00.00 bitrate=N/A speed=   0x    
